# xmcd
#
# Track frame offsets:
# 150
# 18975
# 35430
# 53195
# 66197
# 82860
# 97330
# 111302
# 127447
# 141132
# 160210
# 173005
# 187345
# 187660
# 187962
# 188267
# 188575
# 188985
#
# Disc length: 2693 seconds
#
# Revision: 2
# Processed by: cddbd v1.4PL0 Copyright (c) Steve Scherf et al.
# Submitted via: Axialis_AX_CDPlayer 2.6
#
DISCID=f80a8312
DTITLE=Sawyer Brown - Six Days On The Road
DYEAR=1900
DGENRE=
TTITLE0=Another Side
TTITLE1=Talkin' Bout You
TTITLE2=This Night Won't Last Forever
TTITLE3=Six Days On The Road
TTITLE4=Small Talk
TTITLE5=With This Ring
TTITLE6=Transistor Rodeo
TTITLE7=Night and Day
TTITLE8=Half A Heart
TTITLE9=Between You and Paradise
TTITLE10=A Love Like This
TTITLE11=Every Twist and Turn
TTITLE12=Blank
TTITLE13=Blank
TTITLE14=Blank
TTITLE15=Blank
TTITLE16=Blank
TTITLE17=The Nebraska Song
EXTD=
EXTT0=
EXTT1=
EXTT2=
EXTT3=
EXTT4=
EXTT5=
EXTT6=
EXTT7=
EXTT8=
EXTT9=
EXTT10=
EXTT11=
EXTT12=
EXTT13=
EXTT14=
EXTT15=
EXTT16=
EXTT17=
PLAYORDER=
